<svg width="47" height="47" viewBox="0 0 47 47" fill="none" xmlns="http://www.w3.org/2000/svg">
<path fill-rule="evenodd" clip-rule="evenodd" d="M46.6432 23.5C46.6432 36.3408 36.2343 46.7497 23.3935 46.7497C10.5527 46.7497 0.143768 36.3408 0.143768 23.5C0.143768 10.6591 10.5527 0.250244 23.3935 0.250244C36.2343 0.250244 46.6432 10.6591 46.6432 23.5ZM14.0936 14.7813C14.5561 14.7813 14.9996 14.965 15.3266 15.292C15.6536 15.6191 15.8373 16.0626 15.8373 16.525V21.7562H21.6498V16.525C21.6498 16.0626 21.8335 15.6191 22.1605 15.292C22.4875 14.965 22.931 14.7813 23.3935 14.7813C23.856 14.7813 24.2995 14.965 24.6265 15.292C24.9535 15.6191 25.1372 16.0626 25.1372 16.525V21.7562H25.7185C26.8251 21.7562 27.5691 21.7562 28.1434 21.7167C28.7037 21.6772 28.9757 21.6098 29.1548 21.5354C29.8685 21.2401 30.4335 20.6751 30.7288 19.9614C30.8032 19.7823 30.8706 19.5103 30.9101 18.95C30.9496 18.3757 30.9496 17.6317 30.9496 16.525C30.9496 16.0626 31.1334 15.6191 31.4604 15.292C31.7874 14.965 32.2309 14.7813 32.6934 14.7813C33.1558 14.7813 33.5994 14.965 33.9264 15.292C34.2534 15.6191 34.4371 16.0626 34.4371 16.525V16.5832C34.4371 17.6178 34.4371 18.4803 34.3906 19.1871C34.3615 19.9097 34.2122 20.6224 33.9489 21.2959C33.6278 22.0718 33.157 22.777 32.5634 23.371C31.9698 23.965 31.265 24.4362 30.4893 24.7578C29.8151 25.0368 29.1176 25.146 28.3806 25.1949C27.6738 25.2437 26.8112 25.2437 25.7766 25.2437H25.1372V30.4749C25.1372 30.9373 24.9535 31.3809 24.6265 31.7079C24.2995 32.0349 23.856 32.2186 23.3935 32.2186C22.931 32.2186 22.4875 32.0349 22.1605 31.7079C21.8335 31.3809 21.6498 30.9373 21.6498 30.4749V25.2437H15.8373V30.4749C15.8373 30.9373 15.6536 31.3809 15.3266 31.7079C14.9996 32.0349 14.5561 32.2186 14.0936 32.2186C13.6311 32.2186 13.1876 32.0349 12.8606 31.7079C12.5336 31.3809 12.3499 30.9373 12.3499 30.4749V16.525C12.3499 16.2961 12.395 16.0693 12.4826 15.8578C12.5702 15.6462 12.6987 15.454 12.8606 15.292C13.0225 15.1301 13.2147 15.0017 13.4263 14.9141C13.6379 14.8264 13.8646 14.7813 14.0936 14.7813Z" fill="white"/>
</svg>
