<svg width="48" height="43" viewBox="0 0 48 43" fill="none" xmlns="http://www.w3.org/2000/svg">
<path fill-rule="evenodd" clip-rule="evenodd" d="M11.9002 0.422119C11.2678 0.422326 10.6453 0.578678 10.0879 0.877293C9.53046 1.17591 9.05541 1.60755 8.7049 2.13388L0.828617 13.945C0.348008 14.6692 0.290949 15.5953 0.679386 16.3722C4.9921 24.9911 10.9818 32.6624 18.2973 38.9367L22.1378 42.2307C22.6271 42.6501 23.2502 42.8806 23.8946 42.8806C24.5389 42.8806 25.1621 42.6501 25.6513 42.2307L29.4918 38.9389C36.8084 32.6642 42.7988 24.992 47.1119 16.3722C47.5004 15.5953 47.4411 14.6692 46.9605 13.945L39.0798 2.13388C38.7293 1.60826 38.2545 1.17725 37.6975 0.879038C37.1405 0.58083 36.5185 0.42464 35.8867 0.424314L11.9002 0.422119ZM11.4437 3.95756C11.4939 3.88254 11.5618 3.82106 11.6414 3.77857C11.7211 3.73608 11.8099 3.71389 11.9002 3.71396H17.0355L12.8329 13.8002C12.7395 14.032 12.6661 14.2713 12.6134 14.5156C11.0679 14.4003 9.52417 14.2613 7.98289 14.0986L4.89953 13.776L11.4437 3.95756ZM4.75688 17.0701C8.69678 24.2934 13.8946 30.7553 20.1057 36.1518L13.2476 17.8623C11.3766 17.7337 9.50795 17.5712 7.64273 17.3751L4.75688 17.0701ZM16.8401 18.0664L23.8935 36.8826L30.949 18.0664C26.2477 18.2795 21.5392 18.2795 16.8379 18.0664M34.5415 17.8623L27.6835 36.1518C33.8945 30.7553 39.0923 24.2934 43.0322 17.0701L40.1464 17.3751C38.281 17.5697 36.4127 17.7321 34.5415 17.8623ZM42.8874 13.776L39.8018 14.1008C38.2606 14.2635 36.7169 14.4025 35.1713 14.5178C35.1195 14.2728 35.0468 14.0327 34.9541 13.8002L30.7515 3.71396H35.8867C35.977 3.71389 36.0659 3.73608 36.1455 3.77857C36.2251 3.82106 36.293 3.88254 36.3432 3.95756L42.8874 13.776ZM31.7763 14.7307C26.5226 15.0028 21.2673 15.0028 16.0106 14.7307L20.6016 3.71396H27.1853L31.7763 14.7307Z" fill="white"/>
</svg>
