<svg width="51" height="51" viewBox="0 0 51 51" fill="none" xmlns="http://www.w3.org/2000/svg">
<path fill-rule="evenodd" clip-rule="evenodd" d="M2.24768 25.4999C6.51493 16.7634 15.2767 10.7708 25.3935 10.7708C35.5103 10.7708 44.2721 16.7634 48.5393 25.4999C44.2721 34.2364 35.5103 40.2291 25.3935 40.2291C15.2767 40.2291 6.51493 34.2364 2.24768 25.4999ZM25.3935 32.8645C26.3606 32.8645 27.3183 32.674 28.2118 32.3039C29.1053 31.9338 29.9172 31.3913 30.6011 30.7075C31.2849 30.0236 31.8274 29.2117 32.1975 28.3182C32.5676 27.4247 32.7581 26.4671 32.7581 25.4999C32.7581 24.5328 32.5676 23.5751 32.1975 22.6816C31.8274 21.7881 31.2849 20.9762 30.6011 20.2924C29.9172 19.6085 29.1053 19.066 28.2118 18.6959C27.3183 18.3258 26.3606 18.1353 25.3935 18.1353C23.4403 18.1353 21.5671 18.9112 20.186 20.2924C18.8048 21.6735 18.0289 23.5467 18.0289 25.4999C18.0289 27.4531 18.8048 29.3263 20.186 30.7075C21.5671 32.0886 23.4403 32.8645 25.3935 32.8645Z" fill="white"/>
</svg>
